<?xml version="1.0" encoding="utf-8"?>
<!-- Generator: Moho 14.2 build 20240604 -->
<!DOCTYPE svg PUBLIC "-//W3C//DTD SVG 1.1//EN" "http://www.w3.org/Graphics/SVG/1.1/DTD/svg11.dtd">
<svg version="1.1" id="Frame_0" xmlns="http://www.w3.org/2000/svg" xmlns:xlink="http://www.w3.org/1999/xlink" width="256px" height="256px">
	<style>
		path {
			fill: #000000;
		}
		@media ( prefers-color-scheme: dark ) {
			path {
				fill: #FFFFFF;
			}
		}
	</style>
	<path id="path" fill="#000000" fill-rule="evenodd" stroke="none" d="M 251.196 226.818 C 251.195 226.818 249.093 226.818 249.093 226.818 C 249.093 226.817 248.773 216.800 248.773 216.799 C 248.773 216.799 246.758 223.048 246.757 223.049 C 246.757 223.049 245.265 223.049 245.265 223.049 C 245.265 223.048 243.463 216.799 243.463 216.799 C 243.463 216.800 243.182 226.817 243.182 226.818 C 243.182 226.818 241.157 226.818 241.157 226.818 C 241.157 226.817 241.777 214.155 241.777 214.153 C 241.777 214.153 244.470 214.153 244.471 214.153 C 244.471 214.154 246.118 219.773 246.118 219.773 C 246.118 219.773 247.823 214.154 247.824 214.153 C 247.824 214.153 250.565 214.153 250.566 214.153 C 250.566 214.155 251.195 226.817 251.196 226.818 M 239.629 216.140 C 239.628 216.140 236.160 216.140 236.160 216.140 C 236.160 216.141 236.160 226.817 236.160 226.818 C 236.159 226.818 233.718 226.818 233.718 226.818 C 233.718 226.817 233.718 216.141 233.718 216.140 C 233.717 216.140 230.249 216.140 230.249 216.140 C 230.249 216.140 230.249 214.154 230.249 214.153 C 230.250 214.153 239.628 214.153 239.629 214.153 C 239.629 214.154 239.629 216.140 239.629 216.140 M 229.065 243.352 C 228.946 259.231 209.631 256.177 202.822 254.352 C 202.822 254.352 202.822 247.333 202.822 247.333 C 207.265 248.822 220.698 252.065 221.206 245.175 C 221.696 238.541 202.992 240.676 203.095 228.536 C 203.198 216.302 217.729 216.003 226.172 218.707 C 226.172 218.707 226.172 225.046 226.172 225.046 C 211.202 220.729 209.649 227.027 211.530 229.353 C 214.606 233.157 229.138 233.654 229.065 243.352 M 38.044 243.352 C 37.925 259.231 18.609 256.177 11.800 254.352 C 11.800 254.352 11.800 247.333 11.800 247.333 C 16.243 248.822 29.676 252.065 30.185 245.175 C 30.675 238.541 11.971 240.676 12.073 228.536 C 12.176 216.302 26.707 216.003 35.150 218.707 C 35.150 218.707 35.150 225.046 35.150 225.046 C 20.180 220.729 18.627 227.027 20.508 229.353 C 23.584 233.157 38.116 233.654 38.044 243.352 M 197.838 223.947 C 197.837 223.947 187.719 223.947 187.718 223.947 C 187.718 223.951 187.718 254.994 187.718 254.997 C 187.717 254.997 180.595 254.997 180.594 254.997 C 180.594 254.994 180.594 223.951 180.594 223.947 C 180.593 223.947 170.475 223.947 170.474 223.947 C 170.474 223.947 170.474 218.172 170.474 218.171 C 170.477 218.171 197.835 218.171 197.838 218.171 C 197.838 218.172 197.838 223.947 197.838 223.947 M 147.238 237.415 C 152.261 237.623 158.666 237.506 158.546 230.425 C 158.426 223.283 151.435 223.890 147.238 223.919 C 147.242 228.418 147.242 232.917 147.238 237.415 M 153.111 218.171 C 158.600 218.170 165.928 221.213 165.900 229.859 C 165.863 240.789 157.266 243.878 147.238 243.304 C 147.248 247.202 147.238 254.996 147.238 254.997 C 147.237 254.997 140.228 254.997 140.227 254.997 C 140.227 254.993 140.227 218.175 140.227 218.171 C 140.228 218.171 153.111 218.171 153.111 218.171 M 116.962 223.835 C 116.961 223.835 108.822 223.835 108.821 223.835 C 108.821 223.834 108.821 218.172 108.821 218.171 C 108.823 218.171 132.168 218.171 132.171 218.171 C 132.171 218.172 132.171 223.834 132.171 223.835 C 132.170 223.835 124.030 223.835 124.029 223.835 C 124.029 223.837 124.029 249.275 124.029 249.277 C 124.030 249.277 132.170 249.277 132.171 249.277 C 132.171 249.278 132.171 254.997 132.171 254.997 C 132.168 254.997 108.823 254.997 108.821 254.997 C 108.821 254.997 108.821 249.278 108.821 249.277 C 108.822 249.277 116.961 249.277 116.962 249.277 C 116.962 249.275 116.962 223.837 116.962 223.835 M 83.351 234.344 C 87.358 234.376 93.311 234.281 93.301 229.019 C 93.291 223.334 86.431 223.946 83.351 223.947 C 83.354 227.413 83.355 230.879 83.351 234.344 M 103.371 255.138 C 103.371 255.138 95.027 254.997 95.026 254.997 C 95.025 254.996 91.125 246.505 89.247 242.408 C 88.439 240.644 86.896 239.693 83.351 239.754 C 83.358 244.835 83.351 254.996 83.351 254.997 C 83.350 254.997 76.398 254.997 76.397 254.997 C 76.397 254.993 76.397 218.175 76.397 218.171 C 76.398 218.171 89.141 218.069 89.141 218.069 C 104.382 217.513 103.745 236.975 92.538 237.500 C 95.452 238.450 96.640 241.306 97.878 243.890 C 99.651 247.592 101.592 251.364 103.371 255.138 M 69.302 247.079 C 69.302 247.080 69.302 253.560 69.302 253.560 C 66.223 254.741 55.966 258.424 48.296 251.764 C 41.323 245.709 41.529 229.735 47.874 222.679 C 53.802 216.087 62.180 216.725 69.302 218.988 C 69.302 218.989 69.302 225.863 69.302 225.863 C 64.850 223.872 58.618 222.285 54.567 225.863 C 49.209 230.594 49.335 245.321 56.355 248.432 C 60.516 250.276 65.408 248.795 69.302 247.079 M 106.517 98.887 C 106.542 111.956 117.095 122.502 130.151 122.522 C 143.239 122.529 153.809 111.951 153.786 98.887 C 153.799 85.806 143.263 75.228 130.151 75.253 C 117.089 75.246 106.544 85.783 106.517 98.887 M 252.304 47.446 C 252.304 47.449 252.304 71.238 252.304 71.240 C 252.302 71.240 228.787 71.233 228.785 71.233 C 228.785 71.238 228.893 128.466 228.893 128.468 C 223.004 117.860 214.515 108.049 204.991 98.212 C 204.991 98.211 205.003 71.239 205.003 71.236 C 205.001 71.236 181.476 71.240 181.474 71.240 C 181.474 71.238 181.474 47.449 181.474 47.446 C 181.481 47.446 252.297 47.446 252.304 47.446 M 43.281 175.423 C 43.280 175.413 42.535 77.210 42.535 77.207 C 55.997 60.642 76.203 49.547 99.269 49.151 C 143.884 48.383 180.009 85.132 179.888 129.770 C 179.802 173.474 144.675 207.712 100.977 208.803 C 100.977 208.802 100.974 175.434 100.974 175.430 C 100.968 175.430 43.286 175.423 43.281 175.423 M 34.456 35.270 C 34.454 35.270 11.471 35.270 11.469 35.270 C 11.469 35.287 11.464 208.786 11.464 208.803 C 11.472 208.803 92.320 208.803 92.328 208.803 C 92.328 208.801 92.328 184.170 92.328 184.167 C 92.322 184.167 34.450 184.156 34.444 184.156 C 34.444 184.141 34.456 35.284 34.456 35.270 M 207.187 208.916 C 207.188 208.916 229.032 208.881 229.034 208.881 C 229.034 208.879 228.998 189.086 228.998 189.086 C 223.976 197.767 216.237 204.848 207.187 208.916 M 181.551 0.250 C 153.741 0.205 133.219 23.328 134.166 49.378 C 164.880 62.331 186.570 92.984 186.358 128.342 C 197.091 139.671 205.211 150.148 205.134 160.479 C 205.074 174.849 193.174 184.203 181.463 184.139 C 180.019 184.129 171.369 184.138 168.470 184.134 C 158.772 195.248 146.262 203.646 132.106 208.897 C 148.719 208.656 165.360 208.964 181.955 209.075 C 207.549 209.153 231.469 188.673 231.442 159.428 C 231.485 133.063 209.156 111.482 189.048 92.100 C 172.660 76.281 157.785 61.898 157.751 47.560 C 157.735 35.144 167.788 23.880 181.427 23.854 C 189.227 23.836 195.090 27.604 198.211 30.803 C 198.211 30.803 215.034 14.140 215.034 14.139 C 208.608 7.684 197.256 0.256 181.551 0.250 Z"/>
</svg>

